# xmcd
#
# Track frame offsets:
#	150
#	23853
#	45200
#	61926
#	82990
#	105377
#	123045
#	155264
#	176892
#	188646
#	204791
#	231934
#	258146
#
# Disc length: 3573 seconds
#
# Revision: 0
# Processed by: cddbd v1.5.2PL0 Copyright (c) Steve Scherf et al.
# Submitted via: VUPlayer 2.49
#
DISCID=900df30d
DTITLE=The Mojo Webb Band - The Cat
DYEAR=2012
DGENRE=Blues
TTITLE0=The Cat
TTITLE1=It Won't Be Long
TTITLE2=Impossibly Beautiful
TTITLE3=My Guitar And Me
TTITLE4=Slow Drag
TTITLE5=Bree Loves Me
TTITLE6=The Bump
TTITLE7=Love Done Right
TTITLE8=Shake It Baby
TTITLE9=Hot Dog
TTITLE10=Ten More Towns
TTITLE11=Gypsy Blues
TTITLE12=Rib Fillet Boogie
EXTD=
EXTT0=
EXTT1=
EXTT2=
EXTT3=
EXTT4=
EXTT5=
EXTT6=
EXTT7=
EXTT8=
EXTT9=
EXTT10=
EXTT11=
EXTT12=
PLAYORDER=
